<?xml version="1.0" encoding="utf-8"?>
<!-- Generator: Adobe Illustrator 18.1.1, SVG Export Plug-In . SVG Version: 6.00 Build 0)  -->
<svg version="1.1" xmlns="http://www.w3.org/2000/svg" xmlns:xlink="http://www.w3.org/1999/xlink" x="0px" y="0px"
	 viewBox="0 0 960 560" enable-background="new 0 0 960 560" xml:space="preserve">
<g id="BG">
	<rect fill="#001D3A" stroke="#000000" stroke-miterlimit="10" width="960" height="560"/>
</g>
<g id="Mountain">
	<g id="Layer_4">
	</g>
	<polyline display="none" opacity="8.000000e-002" points="447.3,146.9 416,244 532.7,297.7 447.3,383 546,464 408,589 53.7,540.6 	
		"/>
	<defs>
		<filter id="Adobe_OpacityMaskFilter" filterUnits="userSpaceOnUse" x="-84.3" y="332.7" width="387.3" height="454.5">
			<feColorMatrix  type="matrix" values="1 0 0 0 0  0 1 0 0 0  0 0 1 0 0  0 0 0 1 0"/>
		</filter>
	</defs>
	<mask maskUnits="userSpaceOnUse" x="-84.3" y="332.7" width="387.3" height="454.5" id="SVGID_1_">
		<g filter="url(#Adobe_OpacityMaskFilter)">
			<rect x="-90.4" y="297" fill="#FFFFFF" width="378.5" height="264.1"/>
		</g>
	</mask>
	<g mask="url(#SVGID_1_)">
		<polygon fill="#336ECC" points="99.3,787.2 -84.3,560 99.3,332.7 282.9,560 		"/>
		<polygon fill="#FFFFFF" points="99.3,469 44.3,400.9 99.3,332.7 154.4,400.9 		"/>
		<polygon fill="#FFFFFF" points="44.3,469.2 16.7,435 44.3,400.9 71.8,435 		"/>
		<polygon fill="#FFFFFF" points="154.4,469.2 126.8,435 154.4,400.9 182,435 		"/>
		<polyline id="Shadow_Top" opacity="0.1" points="182,435 154.4,469.2 126.8,435 99.3,469 122.9,412.4 82.1,376.4 99.3,332.7 
			99.3,332.7 		"/>
		<polyline id="Shadow_mountain" opacity="0.2" points="99.3,469 126.8,435 154.5,469 182,435 282.9,560 303,597.7 40.8,571.2 
			124.3,522.1 59.5,491.5 87.8,454.8 		"/>
	</g>
	<defs>
		<filter id="Adobe_OpacityMaskFilter_1_" filterUnits="userSpaceOnUse" x="108.7" y="332.7" width="387.3" height="454.5">
			<feColorMatrix  type="matrix" values="1 0 0 0 0  0 1 0 0 0  0 0 1 0 0  0 0 0 1 0"/>
		</filter>
	</defs>
	<mask maskUnits="userSpaceOnUse" x="108.7" y="332.7" width="387.3" height="454.5" id="SVGID_2_">
		<g filter="url(#Adobe_OpacityMaskFilter_1_)">
			<rect x="102.6" y="297" fill="#FFFFFF" width="378.5" height="264.1"/>
		</g>
	</mask>
	<g mask="url(#SVGID_2_)">
		<polygon fill="#336ECC" points="292.3,787.2 108.7,560 292.3,332.7 475.9,560 		"/>
		<polygon fill="#FFFFFF" points="292.3,469 237.3,400.9 292.3,332.7 347.4,400.9 		"/>
		<polygon fill="#FFFFFF" points="237.3,469.2 209.7,435 237.3,400.9 264.8,435 		"/>
		<polygon fill="#FFFFFF" points="347.4,469.2 319.8,435 347.4,400.9 375,435 		"/>
		<polyline id="Shadow_Top_1_" opacity="0.1" points="375,435 347.4,469.2 319.8,435 292.3,469 315.9,412.4 275.1,376.4 
			292.3,332.7 292.3,332.7 		"/>
		<polyline id="Shadow_mountain_1_" opacity="0.2" points="292.3,469 319.8,435 347.5,469 375,435 475.9,560 496,597.7 233.8,571.2 
			317.3,522.1 252.5,491.5 280.8,454.8 		"/>
	</g>
	<defs>
		<filter id="Adobe_OpacityMaskFilter_2_" filterUnits="userSpaceOnUse" x="509.7" y="332.7" width="387.3" height="454.5">
			<feColorMatrix  type="matrix" values="1 0 0 0 0  0 1 0 0 0  0 0 1 0 0  0 0 0 1 0"/>
		</filter>
	</defs>
	<mask maskUnits="userSpaceOnUse" x="509.7" y="332.7" width="387.3" height="454.5" id="SVGID_3_">
		<g filter="url(#Adobe_OpacityMaskFilter_2_)">
			<rect x="503.6" y="297" fill="#FFFFFF" width="378.5" height="264.1"/>
		</g>
	</mask>
	<g mask="url(#SVGID_3_)">
		<polygon fill="#336ECC" points="693.3,787.2 509.7,560 693.3,332.7 876.9,560 		"/>
		<polygon fill="#FFFFFF" points="693.3,469 638.3,400.9 693.3,332.7 748.4,400.9 		"/>
		<polygon fill="#FFFFFF" points="638.3,469.2 610.7,435 638.3,400.9 665.8,435 		"/>
		<polygon fill="#FFFFFF" points="748.4,469.2 720.8,435 748.4,400.9 776,435 		"/>
		<polyline id="Shadow_Top_3_" opacity="0.1" points="776,435 748.4,469.2 720.8,435 693.3,469 716.9,412.4 676.1,376.4 
			693.3,332.7 693.3,332.7 		"/>
		<polyline id="Shadow_mountain_3_" opacity="0.2" points="693.3,469 720.8,435 748.5,469 776,435 876.9,560 897,597.7 634.8,571.2 
			718.3,522.1 653.5,491.5 681.8,454.8 		"/>
	</g>
	<defs>
		<filter id="Adobe_OpacityMaskFilter_3_" filterUnits="userSpaceOnUse" x="-256.3" y="332.7" width="387.3" height="454.5">
			<feColorMatrix  type="matrix" values="1 0 0 0 0  0 1 0 0 0  0 0 1 0 0  0 0 0 1 0"/>
		</filter>
	</defs>
	<mask maskUnits="userSpaceOnUse" x="-256.3" y="332.7" width="387.3" height="454.5" id="SVGID_4_">
		<g filter="url(#Adobe_OpacityMaskFilter_3_)">
			<rect x="-262.4" y="297" fill="#FFFFFF" width="378.5" height="264.1"/>
		</g>
	</mask>
	<g mask="url(#SVGID_4_)">
		<polygon fill="#336ECC" points="-72.7,787.2 -256.3,560 -72.7,332.7 110.9,560 		"/>
		<polygon fill="#FFFFFF" points="-72.7,469 -127.7,400.9 -72.7,332.7 -17.6,400.9 		"/>
		<polygon fill="#FFFFFF" points="-127.7,469.2 -155.3,435 -127.7,400.9 -100.2,435 		"/>
		<polygon fill="#FFFFFF" points="-17.6,469.2 -45.2,435 -17.6,400.9 10,435 		"/>
		<polyline id="Shadow_Top_6_" opacity="0.1" points="10,435 -17.6,469.2 -45.2,435 -72.7,469 -49.1,412.4 -89.9,376.4 -72.7,332.7 
			-72.7,332.7 		"/>
		<polyline id="Shadow_mountain_6_" opacity="0.2" points="-72.7,469 -45.2,435 -17.5,469 10,435 110.9,560 131,597.7 -131.2,571.2 
			-47.7,522.1 -112.5,491.5 -84.2,454.8 		"/>
	</g>
	<defs>
		<filter id="Adobe_OpacityMaskFilter_4_" filterUnits="userSpaceOnUse" x="305.7" y="332.7" width="387.3" height="454.5">
			<feColorMatrix  type="matrix" values="1 0 0 0 0  0 1 0 0 0  0 0 1 0 0  0 0 0 1 0"/>
		</filter>
	</defs>
	<mask maskUnits="userSpaceOnUse" x="305.7" y="332.7" width="387.3" height="454.5" id="SVGID_5_">
		<g filter="url(#Adobe_OpacityMaskFilter_4_)">
			<rect x="299.6" y="297" fill="#FFFFFF" width="378.5" height="264.1"/>
		</g>
	</mask>
	<g mask="url(#SVGID_5_)">
		<polygon fill="#336ECC" points="489.3,787.2 305.7,560 489.3,332.7 672.9,560 		"/>
		<polygon fill="#FFFFFF" points="489.3,469 434.3,400.9 489.3,332.7 544.4,400.9 		"/>
		<polygon fill="#FFFFFF" points="434.3,469.2 406.7,435 434.3,400.9 461.8,435 		"/>
		<polygon fill="#FFFFFF" points="544.4,469.2 516.8,435 544.4,400.9 572,435 		"/>
		<polyline id="Shadow_Top_2_" opacity="0.1" points="572,435 544.4,469.2 516.8,435 489.3,469 512.9,412.4 472.1,376.4 
			489.3,332.7 489.3,332.7 		"/>
		<polyline id="Shadow_mountain_2_" opacity="0.2" points="489.3,469 516.8,435 544.5,469 572,435 672.9,560 693,597.7 430.8,571.2 
			514.3,522.1 449.5,491.5 477.8,454.8 		"/>
	</g>
	<defs>
		<filter id="Adobe_OpacityMaskFilter_5_" filterUnits="userSpaceOnUse" x="703.7" y="332.7" width="387.3" height="454.5">
			<feColorMatrix  type="matrix" values="1 0 0 0 0  0 1 0 0 0  0 0 1 0 0  0 0 0 1 0"/>
		</filter>
	</defs>
	<mask maskUnits="userSpaceOnUse" x="703.7" y="332.7" width="387.3" height="454.5" id="SVGID_6_">
		<g filter="url(#Adobe_OpacityMaskFilter_5_)">
			<rect x="697.6" y="297" fill="#FFFFFF" width="378.5" height="264.1"/>
		</g>
	</mask>
	<g mask="url(#SVGID_6_)">
		<polygon fill="#336ECC" points="887.3,787.2 703.7,560 887.3,332.7 1070.9,560 		"/>
		<polygon fill="#FFFFFF" points="887.3,469 832.3,400.9 887.3,332.7 942.4,400.9 		"/>
		<polygon fill="#FFFFFF" points="832.3,469.2 804.7,435 832.3,400.9 859.8,435 		"/>
		<polygon fill="#FFFFFF" points="942.4,469.2 914.8,435 942.4,400.9 970,435 		"/>
		<polyline id="Shadow_Top_5_" opacity="0.1" points="970,435 942.4,469.2 914.8,435 887.3,469 910.9,412.4 870.1,376.4 
			887.3,332.7 887.3,332.7 		"/>
		<polyline id="Shadow_mountain_5_" opacity="0.2" points="887.3,469 914.8,435 942.5,469 970,435 1070.9,560 1091,597.7 
			828.8,571.2 912.3,522.1 847.5,491.5 875.8,454.8 		"/>
	</g>
</g>
<g id="Clouds" display="none">
	<circle display="inline" fill="#AFFDFF" cx="25.1" cy="544.3" r="47"/>
	<circle display="inline" fill="#AFFDFF" cx="83.1" cy="564.3" r="47"/>
	<circle display="inline" fill="#AFFDFF" cx="154.1" cy="533.3" r="47"/>
	<circle display="inline" fill="#AFFDFF" cx="211.1" cy="557.3" r="47"/>
	<circle display="inline" fill="#AFFDFF" cx="293.1" cy="560.3" r="47"/>
	<circle display="inline" fill="#AFFDFF" cx="363.1" cy="549.3" r="47"/>
	<circle display="inline" fill="#AFFDFF" cx="421.1" cy="572.3" r="47"/>
	<circle display="inline" fill="#AFFDFF" cx="499.1" cy="544.3" r="47"/>
	<circle display="inline" fill="#AFFDFF" cx="575.1" cy="576.3" r="47"/>
	<circle display="inline" fill="#AFFDFF" cx="655.1" cy="549.3" r="47"/>
	<circle display="inline" fill="#AFFDFF" cx="727.1" cy="572.3" r="47"/>
	<circle display="inline" fill="#AFFDFF" cx="791.1" cy="533.3" r="47"/>
	<circle display="inline" fill="#AFFDFF" cx="871.1" cy="560.3" r="47"/>
	<circle display="inline" fill="#AFFDFF" cx="942.1" cy="549.3" r="47"/>
</g>
</svg>
