<?xml version="1.0" encoding="utf-8"?>
<!-- Generator: Adobe Illustrator 27.0.1, SVG Export Plug-In . SVG Version: 6.00 Build 0)  -->
<svg version="1.1" id="Layer_1" xmlns="http://www.w3.org/2000/svg" xmlns:xlink="http://www.w3.org/1999/xlink" x="0px" y="0px"
	 viewBox="0 0 1280 960" enable-background="new 0 0 1280 960" xml:space="preserve">
<g>
	<rect y="0.0001" fill="#FFFFFF" width="1280" height="960"/>
</g>
<g id="Logo">
	<path fill="#171717" d="M898.9619,581.6818c-6.1221,0-10.2363-0.4463-14.1289-1.5369v-22.4915
		c3.6113,0.9548,7.6738,1.5217,10.9336,1.5217c12.7354,0,20.3926-5.5049,26.4297-19.0005l2.2812-5.2136L878.252,427.5267h29.166
		l30.8613,79.7241l27.3242-79.7241h29.167l-44.915,111.1743C938.2227,567.2206,921.0996,581.6818,898.9619,581.6818z
		 M821.9541,539.8226c-21.5889,0-35.5381-11.8171-35.5381-30.106c0-11.2524,5.6963-20.2639,16.9307-26.7842
		c9.29-5.3921,22.3711-8.8413,36.835-9.7126l12.6973-0.6511v-2.4744c0-14.3623-8.5742-22.937-22.9365-22.937
		c-14.3066,0-23.4551,8.5847-24.5166,22.9814l-24.4277-2.5051c1.6611-25.3391,21.4287-42.3438,49.2637-42.3438
		c29.2832,0,48.958,19.2896,48.958,47.9998v64.2962h-24.4238v-17.8254l-0.4854,1.3765
		C850.4893,531.9642,836.8818,539.8226,821.9541,539.8226z M841.751,489.3363c-14.1729,1.0125-29.3135,6.394-29.3135,18.4631
		c0,9.3726,8.7119,12.7119,16.8652,12.7119c11.6045,0,24.5352-10.3384,24.5352-25.1736v-6.6548L841.751,489.3363z
		 M710.7559,539.8226c-30.6787,0-54.71-25.0139-54.71-56.9468c0-32.8293,23.5205-57.5859,54.71-57.5859
		c11.3379,0,27.0371,4.5684,33.9707,17.4431l0.4697,0.8728v-65.2874h26.0205v159.2674h-24.7432v-16.0793l-0.4697,0.8733
		C740.1221,533.3019,726.9463,539.8226,710.7559,539.8226z M714.9092,447.1573c-18.6602,0-32.2031,15.0217-32.2031,35.7185
		c0,22.3579,16.373,35.7183,32.2031,35.7183c18.4756,0,31.8848-15.0218,31.8848-35.7183
		C746.7939,461.8453,733.6826,447.1573,714.9092,447.1573z M589.9717,539.8226c-32.291,0-57.5859-25.1543-57.5859-57.2664
		s25.2949-57.2664,57.5859-57.2664c15.415,0,29.8516,5.6777,40.6475,15.9875c11.1289,10.6265,17.2578,25.2864,17.2578,41.2788
		s-6.1289,30.6521-17.2578,41.2788C619.8232,534.1449,605.3867,539.8226,589.9717,539.8226z M589.9717,447.4769
		c-17.9199,0-30.9258,14.7529-30.9258,35.0793s13.0059,35.0794,30.9258,35.0794c18.1045,0,31.2451-14.753,31.2451-35.0794
		S608.0762,447.4769,589.9717,447.4769z M337.2617,539.8226c-23.9346,0-40.6504-15.9277-40.6504-38.7334
		c0-9.4033,2.8965-21.4128,8.6104-35.6951l6.21-15.3608h-26.3232v-22.5066h34.75l14.9893-38.5884l22.8594,9.0808l-11.8682,29.5076
		h41.999l24.499,84.457L432,427.5267h33.7939l19.6631,84.457l24.499-84.457h27.2656L500.96,537.5858h-30.9385l-20.9629-83.2061
		l-21.2852,83.2061H395.875l-28.7578-87.5525h-30.0264l-9.3291,24.125c-3.7686,9.9353-5.4482,17.7478-5.4482,25.3333
		c0,11.2163,7.1221,18.4637,18.1436,18.4637c5.6465,0,13.6514-2.6985,17.7432-4.6895l6.2422,19.9744
		C357.0674,537.1815,346.1768,539.8226,337.2617,539.8226z"/>
	<path fill="#171717" d="M770.9673,378.5685v158.7676H746.724v-14.8379v-1.9829l-0.9403,1.7461
		c-5.8365,10.8394-18.9313,17.311-35.0281,17.311c-14.6892,0-28.3641-5.7197-38.5056-16.1055
		c-10.2883-10.5366-15.9543-24.9522-15.9543-40.5913c0-15.5962,5.4982-30.0425,15.4818-40.6777
		c10.0834-10.7417,23.926-16.6577,38.9781-16.6577c11.269,0,26.8699,4.5337,33.75,17.3115l0.9403,1.7461v-1.9834v-64.0459H770.9673
		 M714.9097,518.8444c9.4772,0,17.6058-3.6655,23.5071-10.6011c5.5631-6.5376,8.6268-15.5469,8.6268-25.3677
		c0-10.0566-3.0645-19.1514-8.6289-25.6094c-5.839-6.7769-13.967-10.3589-23.505-10.3589c-18.8048,0-32.4535,15.127-32.4535,35.9683
		C682.4562,505.3902,698.957,518.8444,714.9097,518.8444 M334.9895,389.2638l22.391,8.895l-11.6354,28.9316l-0.2761,0.6865h0.74
		h41.4408l24.1802,83.3569l0.5331,1.8384l0.4341-1.8643l19.4016-83.3311h33.3962l19.4016,83.3311l0.434,1.8643l0.5332-1.8384
		l24.1799-83.3569h26.7329l-36.0975,109.5591h-30.563l-20.6746-82.0625l-0.4812-1.9097l-0.488,1.9077l-20.9932,82.0645h-31.5227
		l-28.6453-87.209l-0.1129-0.3438h-0.3621h-29.6741h-0.3428l-0.1235,0.3198l-9.2678,23.9678
		c-3.7792,9.9634-5.4645,17.8032-5.4645,25.4209c0,11.3682,7.22,18.7134,18.3939,18.7134c5.5679,0,13.4038-2.6011,17.5901-4.5889
		l6.0939,19.5c-7.3375,3.8701-18.0745,6.4561-26.8793,6.4561c-11.6879,0-21.7483-3.668-29.0939-10.6079
		c-7.3969-6.9883-11.3066-16.627-11.3066-27.875c0-9.3716,2.8906-21.3496,8.5909-35.6006l6.0712-15.0181l0.278-0.6875h-0.7415
		h-25.7019v-22.0063h34.3293h0.3422l0.1239-0.3188L334.9895,389.2638 M830.2617,425.5401c29.134,0,48.7083,19.189,48.7083,47.7495
		v64.0464h-23.9236v-16.1162v-2.9189l-0.9714,2.7524c-3.7874,10.7305-17.2961,18.519-32.1211,18.519
		c-21.4368,0-35.2881-11.7188-35.2881-29.8555c0-11.1572,5.6543-20.0962,16.8062-26.5684
		c9.2571-5.3726,22.2998-8.8101,36.7209-9.6787l12.4619-0.6392l0.4744-0.0244v-0.4751v-2.2368c0-14.519-8.668-23.187-23.187-23.187
		c-14.3674,0-23.5847,8.5698-24.7456,22.957l-23.9321-2.4551c0.8684-12.4116,5.9561-22.918,14.7322-30.4058
		C804.7864,429.504,816.635,425.5401,830.2617,425.5401 M829.303,520.7614c11.7229,0,24.7847-10.4409,24.7847-25.4239v-6.3906
		v-0.5278l-0.5271,0.0288l-11.8313,0.6396c-14.2815,1.02-29.542,6.4712-29.542,18.7119
		C812.1873,517.3561,821.0288,520.7614,829.303,520.7614 M589.9714,425.5401c15.351,0,29.7253,5.6533,40.4753,15.918
		c11.0787,10.5791,17.1801,25.1748,17.1801,41.0981s-6.1013,30.5191-17.1801,41.0982c-10.75,10.2646-25.1244,15.918-40.4753,15.918
		c-15.2109,0-29.4858-5.6528-40.1949-15.9175c-11.0535-10.5947-17.1409-25.1905-17.1409-41.0987s6.0874-30.5039,17.1409-41.0986
		C560.4856,431.193,574.7605,425.5401,589.9714,425.5401 M589.9714,517.8854c18.2494,0,31.4949-14.8579,31.4949-35.3291
		s-13.2455-35.3291-31.4949-35.3291c-18.0642,0-31.1753,14.8579-31.1753,35.3291S571.9072,517.8854,589.9714,517.8854
		 M994.4004,427.7769l-44.7761,110.8286c-5.3723,13.1709-11.9561,23.4316-19.5686,30.498
		c-8.813,8.1802-19.2744,12.3281-31.094,12.3281c-6.0002,0-10.0613-0.4297-13.8792-1.4771v-21.978
		c3.55,0.9106,7.4963,1.4482,10.6838,1.4482c12.8503,0,20.5737-5.5479,26.6599-19.1523l2.2366-5.1123l0.0869-0.1987l-0.0857-0.1992
		l-46.0322-106.9854h28.6147l30.5515,78.9253l0.4949,1.2783l0.4443-1.2969l27.0449-78.9067H994.4004 M771.4673,378.0685h-26.5214
		v64.5459c-6.7103-12.4619-21.7284-17.5742-34.1903-17.5742c-31.6339,0-54.96,25.5625-54.96,57.8354
		c0,32.9121,24.6042,57.1968,54.96,57.1968c14.0596,0,28.7582-5.1123,35.4684-17.5742v15.3379h25.2433V378.0685L771.4673,378.0685z
		 M714.9097,518.3444c-19.1721,0-31.9535-16.9356-31.9535-35.4688c0-19.1719,12.1422-35.4683,31.9535-35.4683
		c19.4916,0,31.6339,15.3379,31.6339,35.4683C746.5436,502.3673,734.4012,518.3444,714.9097,518.3444L714.9097,518.3444z
		 M334.7058,388.6129l-15.0182,38.6641h-34.8293v23.0063h26.2019l-6.0712,15.0181c-5.7516,14.3789-8.6274,26.5215-8.6274,35.7881
		c0,23.3257,16.9353,38.9829,40.9005,38.9829c8.6274,0,19.8112-2.5562,27.48-6.71l-6.3907-20.4502
		c-3.8344,1.917-12.1423,4.793-17.8939,4.793c-9.9056,0-17.8939-6.0713-17.8939-18.2134c0-7.9888,1.9171-15.9771,5.432-25.2437
		l9.2666-23.9648h29.6741l28.7582,87.5528h32.2729l21.0894-82.4405l20.7698,82.4405h31.3143l36.427-110.5591h-27.7996
		l-24.2847,83.7178l-19.4916-83.7178h-34.1902l-19.4917,83.7178l-24.2847-83.7178H346.209l11.8228-29.3975L334.7058,388.6129
		L334.7058,388.6129z M830.2617,425.0401c-27.7996,0-47.9302,16.6157-49.5278,42.8174l24.9236,2.5566
		c0.9587-14.3794,9.9055-23.0068,24.2847-23.0068s22.687,8.6274,22.687,22.687v2.2368l-12.4619,0.6392
		c-26.5212,1.5977-54.0015,12.1421-54.0015,36.7466c0,19.4917,15.3379,30.3555,35.7881,30.3555
		c15.3376,0,28.7581-7.9883,32.5925-18.8525v16.6162H879.47v-64.5464C879.47,442.6143,857.7417,425.0401,830.2617,425.0401
		L830.2617,425.0401z M829.303,520.2614c-8.9468,0-16.6157-3.8345-16.6157-12.4619c0-12.1421,15.6572-17.2549,29.0776-18.2134
		l11.8228-0.6392v6.3906C853.5876,506.8409,843.6821,520.2614,829.303,520.2614L829.303,520.2614z M589.9714,425.0401
		c-30.9949,0-57.8358,23.6455-57.8358,57.5161s26.8409,57.5161,57.8358,57.5161c31.3145,0,58.1554-23.6455,58.1554-57.5161
		S621.2859,425.0401,589.9714,425.0401L589.9714,425.0401z M589.9714,517.3854c-18.533,0-30.6753-15.6573-30.6753-34.8291
		s12.1423-34.8291,30.6753-34.8291c18.8525,0,30.9949,15.6572,30.9949,34.8291S608.824,517.3854,589.9714,517.3854
		L589.9714,517.3854z M995.1416,427.2769H965.425l-27.1606,79.2446l-30.6753-79.2446h-29.7168l46.3325,107.6831l-2.2366,5.1123
		c-5.4321,12.1426-12.4619,18.8525-26.2019,18.8525c-3.5149,0-7.6689-0.6387-11.1838-1.5977v23.0068
		c4.4736,1.2778,8.947,1.5977,14.3792,1.5977c25.5627,0,41.22-18.8525,51.1255-43.1372L995.1416,427.2769L995.1416,427.2769z"/>
</g>
</svg>
