<svg fill="none" height="36" viewBox="0 0 159 36" width="160" xmlns="http://www.w3.org/2000/svg">
<g clip-path="url(#clip0_1618_8010)">
<path d="M46.8722 25.2912C46.5868 25.2912 46.3584 25.1203 46.2442 24.8925L41.1631 14.5824C40.9918 14.2406 41.1631 13.8418 41.4485 13.671C41.7911 13.5001 42.1907 13.671 42.362 13.9558L46.8151 23.0697L51.3254 13.9558C51.4966 13.614 51.9534 13.5001 52.2388 13.7279C52.5243 13.8988 52.6385 14.2406 52.5243 14.5824L47.4431 24.8925C47.329 25.1203 47.1006 25.2912 46.8722 25.2912Z" fill="currentColor"></path>
<path d="M63.029 25.2912H52.8667C52.4671 25.2912 52.1816 25.0064 52.1816 24.6076C52.1816 24.4937 52.1816 24.3798 52.2387 24.2659L57.3199 13.9557C57.4912 13.614 57.8908 13.5 58.2333 13.6709C58.3475 13.7279 58.4617 13.8418 58.5188 13.9557L63.6 24.2659C63.7141 24.4937 63.7141 24.7215 63.6 24.9494C63.4858 25.1772 63.2574 25.2912 63.029 25.2912ZM53.9515 23.9241H61.9443L57.9479 15.8355L53.9515 23.9241Z" fill="currentColor"></path>
<path d="M103.507 25.633C103.108 25.633 102.822 25.3482 102.822 24.9495V16.2343L99.054 21.076C98.7686 21.3608 98.3689 21.4178 98.0264 21.133L97.9693 21.076L94.2012 16.2343V24.8925C94.2012 25.2912 93.9158 25.576 93.5162 25.576C93.1165 25.576 92.8311 25.2912 92.8311 24.8925V14.2976C92.8311 13.8988 93.1165 13.614 93.5162 13.614C93.7445 13.614 93.9158 13.7279 94.0871 13.8988L98.5402 19.595L102.993 13.8988C103.222 13.614 103.678 13.5571 103.964 13.7849C104.135 13.8988 104.249 14.1267 104.249 14.3545V25.0064C104.192 25.2912 103.85 25.633 103.507 25.633Z" fill="currentColor"></path>
<path d="M80.4419 25.633C77.1877 25.633 74.5615 23.0127 74.5615 19.7659C74.5615 16.5191 77.1877 13.8988 80.4419 13.8988C83.6962 13.8988 86.3224 16.5191 86.3224 19.7659C86.3224 23.0127 83.6962 25.633 80.4419 25.633ZM80.4419 15.2089C77.9299 15.2089 75.9317 17.2596 75.9317 19.7659C75.9317 22.2722 77.987 24.2659 80.499 24.2659C83.0111 24.2659 85.0093 22.2153 85.0093 19.7659C85.0093 17.2596 83.0111 15.2089 80.4419 15.2089Z" fill="currentColor"></path>
<path d="M112.413 25.633C109.159 25.633 106.533 23.0127 106.533 19.7659C106.533 16.5191 109.159 13.8988 112.413 13.8988C115.667 13.8988 118.294 16.5191 118.294 19.7659C118.294 23.0127 115.667 25.633 112.413 25.633ZM112.413 15.2089C109.901 15.2089 107.903 17.2596 107.903 19.7089C107.903 22.1583 109.958 24.2089 112.413 24.2089C114.925 24.2089 116.923 22.1583 116.923 19.7089C116.923 17.2596 114.925 15.2089 112.413 15.2089Z" fill="currentColor"></path>
<path d="M140.045 25.633C136.791 25.633 134.165 23.0127 134.165 19.7659C134.165 16.5191 136.791 13.8988 140.045 13.8988C143.3 13.8988 145.926 16.5191 145.926 19.7659C145.926 23.0127 143.3 25.633 140.045 25.633ZM140.045 15.2089C137.533 15.2089 135.535 17.2596 135.535 19.7089C135.535 22.1583 137.591 24.2089 140.045 24.2089C142.558 24.2089 144.556 22.1583 144.556 19.7089C144.556 17.2596 142.558 15.2089 140.045 15.2089Z" fill="currentColor"></path>
<path d="M128.113 14.5253C128.113 14.9241 127.828 15.2089 127.428 15.2089H123.946V25.2342C123.946 25.6329 123.66 25.9177 123.261 25.9177C122.861 25.9177 122.575 25.6329 122.575 25.2342V15.2089H119.093C118.693 15.2089 118.408 14.9241 118.408 14.5253C118.408 14.1266 118.693 13.8418 119.093 13.8418H127.428C127.828 13.8418 128.113 14.1836 128.113 14.5253Z" fill="currentColor"></path>
<path d="M130.968 25.9177C130.569 25.9177 130.283 25.6329 130.283 25.2342V14.5253C130.283 14.1266 130.569 13.8418 130.968 13.8418C131.368 13.8418 131.653 14.1266 131.653 14.5253V25.2342C131.653 25.576 131.368 25.9177 130.968 25.9177Z" fill="currentColor"></path>
<path d="M158.315 25.8608C157.915 25.8608 157.63 25.576 157.63 25.1773V19.0254C157.573 16.7469 155.632 15.038 153.405 15.095C151.293 15.152 149.58 16.8608 149.466 19.0254V24.8925C149.466 25.2912 149.18 25.576 148.781 25.576C148.381 25.576 148.096 25.2912 148.096 24.8925V19.0254C148.21 16.0064 150.722 13.671 153.691 13.7849C156.545 13.8988 158.886 16.1773 158.943 19.0254V25.1773C159 25.576 158.715 25.8608 158.315 25.8608Z" fill="currentColor"></path>
<path d="M73.5911 25.633H68.3387C66.9685 25.633 65.8267 24.4938 65.8267 23.1267V14.2976C65.8267 13.8988 66.1121 13.614 66.5118 13.614C66.9114 13.614 67.1969 13.8988 67.1969 14.2976V23.0697C67.1969 23.6963 67.7107 24.209 68.3387 24.209H73.5911C73.9907 24.209 74.2762 24.4938 74.2762 24.8925C74.2191 25.2912 73.9337 25.576 73.5911 25.633Z" fill="currentColor"></path>
<path d="M36.0248 17.0316C35.5681 7.86076 28.2033 0.455693 18.9544 -3.08827e-06C18.3264 -0.0569651 17.6984 -0.0569651 17.1275 -3.08827e-06C7.13647 0.512655 -0.5138 9 2.44621e-05 18.9114C0.513848 28.8228 9.02049 36.4557 18.9544 35.943C28.8884 35.4304 36.5386 26.943 36.0248 17.0316ZM16.0428 31.3861C15.9286 31.443 15.8144 31.3861 15.7573 31.2722L3.71098 11.0506C3.71098 11.0506 3.65388 10.9937 3.65388 10.9367C3.65388 10.8228 3.71098 10.7089 3.82516 10.7089L9.53432 11.1646C9.59141 11.1646 9.6485 11.2215 9.70559 11.2785L16.0998 31.0443C16.214 31.2152 16.1569 31.3291 16.0428 31.3861ZM17.6984 31.3861C17.6413 31.3861 17.5842 31.3291 17.5271 31.2722L11.5896 9.34177C11.5896 9.22785 11.6467 9.11392 11.7609 9.11392H11.818L16.8991 9.51266C17.0133 9.51266 17.0704 9.62658 17.0704 9.68354L17.9268 31.1582C17.9268 31.3291 17.8126 31.3861 17.6984 31.3861ZM19.2399 31.3861C19.1257 31.3861 19.0686 31.2722 19.0686 31.1582L21.7519 14.1266C21.7519 14.0127 21.8661 13.9557 21.9232 13.9557L26.776 13.3861C26.8331 13.3861 26.8901 13.3861 26.8901 13.3861C27.0043 13.443 27.0043 13.557 27.0043 13.6709L19.4682 31.2722C19.4682 31.3291 19.3541 31.3861 19.2399 31.3861ZM33.1702 13.7278L21.1239 31.3291C21.0668 31.3861 20.9526 31.443 20.8955 31.3861C20.8384 31.3291 20.7814 31.2152 20.8384 31.1582L28.2033 14.5253C28.2033 14.4684 28.2603 14.4114 28.3174 14.4114L32.9419 13.443C32.9989 13.443 33.056 13.443 33.1131 13.5C33.2273 13.557 33.2273 13.6709 33.1702 13.7278Z" fill="currentColor"></path>
</g>
<defs>
<clipPath id="clip0_1618_8010">
<rect fill="currentColor" height="36" width="159"></rect>
</clipPath>
</defs>
</svg>