<?xml version="1.0" encoding="utf-8"?>
<!-- Generator: Adobe Illustrator 18.1.1, SVG Export Plug-In . SVG Version: 6.00 Build 0)  -->
<svg version="1.1" xmlns="http://www.w3.org/2000/svg" xmlns:xlink="http://www.w3.org/1999/xlink" x="0px" y="0px"
	 viewBox="0 0 960 560" enable-background="new 0 0 960 560" xml:space="preserve">
<g id="BG" display="none">
	<rect display="inline" fill="#001D3A" stroke="#000000" stroke-miterlimit="10" width="960" height="560"/>
</g>
<g id="Mountain">
	<g id="Layer_4">
	</g>
	<polyline display="none" opacity="8.000000e-002" points="447.3,146.9 416,244 532.7,297.7 447.3,383 546,464 408,589 53.7,540.6 	
		"/>
	<defs>
		<filter id="Adobe_OpacityMaskFilter" filterUnits="userSpaceOnUse" x="-84.3" y="332.7" width="387.3" height="454.5">
			<feColorMatrix  type="matrix" values="1 0 0 0 0  0 1 0 0 0  0 0 1 0 0  0 0 0 1 0"/>
		</filter>
	</defs>
	<mask maskUnits="userSpaceOnUse" x="-84.3" y="332.7" width="387.3" height="454.5" id="SVGID_1_">
		<g filter="url(#Adobe_OpacityMaskFilter)">
			<rect x="-90.4" y="297" fill="#FFFFFF" width="378.5" height="264.1"/>
		</g>
	</mask>
	<g mask="url(#SVGID_1_)">
		<polygon fill="#336ECC" points="99.3,787.2 -84.3,560 99.3,332.7 282.9,560 		"/>
		<polygon fill="#FFFFFF" points="99.3,469 44.3,400.9 99.3,332.7 154.4,400.9 		"/>
		<polygon fill="#FFFFFF" points="44.3,469.2 16.7,435 44.3,400.9 71.8,435 		"/>
		<polygon fill="#FFFFFF" points="154.4,469.2 126.8,435 154.4,400.9 182,435 		"/>
		<polyline id="Shadow_Top" opacity="0.1" points="182,435 154.4,469.2 126.8,435 99.3,469 122.9,412.4 82.1,376.4 99.3,332.7 
			99.3,332.7 		"/>
		<polyline id="Shadow_mountain" opacity="0.2" points="99.3,469 126.8,435 154.5,469 182,435 282.9,560 303,597.7 40.8,571.2 
			124.3,522.1 59.5,491.5 87.8,454.8 		"/>
	</g>
	<defs>
		<filter id="Adobe_OpacityMaskFilter_1_" filterUnits="userSpaceOnUse" x="-256.3" y="332.7" width="387.3" height="454.5">
			<feColorMatrix  type="matrix" values="1 0 0 0 0  0 1 0 0 0  0 0 1 0 0  0 0 0 1 0"/>
		</filter>
	</defs>
	<mask maskUnits="userSpaceOnUse" x="-256.3" y="332.7" width="387.3" height="454.5" id="SVGID_2_">
		<g filter="url(#Adobe_OpacityMaskFilter_1_)">
			<rect x="-262.4" y="297" fill="#FFFFFF" width="378.5" height="264.1"/>
		</g>
	</mask>
	<g mask="url(#SVGID_2_)">
		<polygon fill="#336ECC" points="-72.7,787.2 -256.3,560 -72.7,332.7 110.9,560 		"/>
		<polygon fill="#FFFFFF" points="-72.7,469 -127.7,400.9 -72.7,332.7 -17.6,400.9 		"/>
		<polygon fill="#FFFFFF" points="-127.7,469.2 -155.3,435 -127.7,400.9 -100.2,435 		"/>
		<polygon fill="#FFFFFF" points="-17.6,469.2 -45.2,435 -17.6,400.9 10,435 		"/>
		<polyline id="Shadow_Top_6_" opacity="0.1" points="10,435 -17.6,469.2 -45.2,435 -72.7,469 -49.1,412.4 -89.9,376.4 -72.7,332.7 
			-72.7,332.7 		"/>
		<polyline id="Shadow_mountain_6_" opacity="0.2" points="-72.7,469 -45.2,435 -17.5,469 10,435 110.9,560 131,597.7 -131.2,571.2 
			-47.7,522.1 -112.5,491.5 -84.2,454.8 		"/>
	</g>
	<defs>
		<filter id="Adobe_OpacityMaskFilter_2_" filterUnits="userSpaceOnUse" x="237.7" y="284" width="470.6" height="552.2">
			<feColorMatrix  type="matrix" values="1 0 0 0 0  0 1 0 0 0  0 0 1 0 0  0 0 0 1 0"/>
		</filter>
	</defs>
	<mask maskUnits="userSpaceOnUse" x="237.7" y="284" width="470.6" height="552.2" id="SVGID_3_">
		<g filter="url(#Adobe_OpacityMaskFilter_2_)">
			<rect x="230.3" y="240.6" fill="#FFFFFF" width="459.9" height="320.9"/>
		</g>
	</mask>
	<g mask="url(#SVGID_3_)">
		<polygon fill="#336ECC" points="460.8,836.2 237.7,560.1 460.8,284 683.9,560.1 		"/>
		<polygon fill="#FFFFFF" points="460.8,449.6 393.9,366.8 460.8,284 527.7,366.8 		"/>
		<polygon fill="#FFFFFF" points="393.9,449.8 360.4,408.3 393.9,366.8 427.4,408.3 		"/>
		<polygon fill="#FFFFFF" points="527.7,449.8 494.2,408.3 527.7,366.8 561.2,408.3 		"/>
		<polyline id="Shadow_Top_2_" opacity="0.1" points="561.2,408.3 527.7,449.8 494.2,408.3 460.8,449.6 489.5,380.8 439.8,337.1 
			460.8,284 460.8,284 		"/>
		<polyline id="Shadow_mountain_2_" opacity="0.2" points="460.8,449.6 494.2,408.3 527.9,449.6 561.2,408.3 683.9,560.1 708.3,606 
			389.8,573.7 491.2,514.1 412.4,476.9 446.8,432.3 		"/>
	</g>
	<defs>
		<filter id="Adobe_OpacityMaskFilter_3_" filterUnits="userSpaceOnUse" x="703.7" y="332.7" width="387.3" height="454.5">
			<feColorMatrix  type="matrix" values="1 0 0 0 0  0 1 0 0 0  0 0 1 0 0  0 0 0 1 0"/>
		</filter>
	</defs>
	<mask maskUnits="userSpaceOnUse" x="703.7" y="332.7" width="387.3" height="454.5" id="SVGID_4_">
		<g filter="url(#Adobe_OpacityMaskFilter_3_)">
			<rect x="697.6" y="297" fill="#FFFFFF" width="378.5" height="264.1"/>
		</g>
	</mask>
	<g mask="url(#SVGID_4_)">
		<polygon fill="#336ECC" points="887.3,787.2 703.7,560 887.3,332.7 1070.9,560 		"/>
		<polygon fill="#FFFFFF" points="887.3,469 832.3,400.9 887.3,332.7 942.4,400.9 		"/>
		<polygon fill="#FFFFFF" points="832.3,469.2 804.7,435 832.3,400.9 859.8,435 		"/>
		<polygon fill="#FFFFFF" points="942.4,469.2 914.8,435 942.4,400.9 970,435 		"/>
		<polyline id="Shadow_Top_5_" opacity="0.1" points="970,435 942.4,469.2 914.8,435 887.3,469 910.9,412.4 870.1,376.4 
			887.3,332.7 887.3,332.7 		"/>
		<polyline id="Shadow_mountain_5_" opacity="0.2" points="887.3,469 914.8,435 942.5,469 970,435 1070.9,560 1091,597.7 
			828.8,571.2 912.3,522.1 847.5,491.5 875.8,454.8 		"/>
	</g>
	<defs>
		<filter id="Adobe_OpacityMaskFilter_4_" filterUnits="userSpaceOnUse" x="6.7" y="212.7" width="591.8" height="694.5">
			<feColorMatrix  type="matrix" values="1 0 0 0 0  0 1 0 0 0  0 0 1 0 0  0 0 0 1 0"/>
		</filter>
	</defs>
	<mask maskUnits="userSpaceOnUse" x="6.7" y="212.7" width="591.8" height="694.5" id="SVGID_5_">
		<g filter="url(#Adobe_OpacityMaskFilter_4_)">
			<rect x="-2.6" y="158.2" fill="#FFFFFF" width="578.4" height="403.5"/>
		</g>
	</mask>
	<g mask="url(#SVGID_5_)">
		<polygon fill="#336ECC" points="287.3,907.2 6.7,560 287.3,212.7 567.9,560 		"/>
		<polygon fill="#FFFFFF" points="287.3,421 203.1,316.9 287.3,212.7 371.4,316.9 		"/>
		<polygon fill="#FFFFFF" points="203.1,421.2 161,369 203.1,316.9 245.3,369 		"/>
		<polygon fill="#FFFFFF" points="371.4,421.2 329.2,369 371.4,316.9 413.6,369 		"/>
		<polyline id="Shadow_Top_1_" opacity="0.1" points="413.6,369 371.4,421.2 329.2,369 287.3,421 323.4,334.5 260.9,279.5 
			287.3,212.7 287.3,212.7 		"/>
		<polyline id="Shadow_mountain_1_" opacity="0.2" points="287.3,421 329.2,369 371.6,421 413.6,369 567.9,560 598.5,617.7 
			197.9,577.1 325.5,502.1 226.5,455.4 269.7,399.2 		"/>
	</g>
	<defs>
		<filter id="Adobe_OpacityMaskFilter_5_" filterUnits="userSpaceOnUse" x="523.7" y="400.9" width="321.6" height="377.3">
			<feColorMatrix  type="matrix" values="1 0 0 0 0  0 1 0 0 0  0 0 1 0 0  0 0 0 1 0"/>
		</filter>
	</defs>
	<mask maskUnits="userSpaceOnUse" x="523.7" y="400.9" width="321.6" height="377.3" id="SVGID_6_">
		<g filter="url(#Adobe_OpacityMaskFilter_5_)">
			<rect x="518.6" y="371.3" fill="#FFFFFF" width="314.3" height="219.3"/>
		</g>
	</mask>
	<g mask="url(#SVGID_6_)">
		<polygon fill="#336ECC" points="676.1,778.2 523.7,589.5 676.1,400.9 828.6,589.5 		"/>
		<polygon fill="#FFFFFF" points="676.1,514 630.4,457.5 676.1,400.9 721.9,457.5 		"/>
		<polygon fill="#FFFFFF" points="630.4,514.2 607.5,485.8 630.4,457.5 653.3,485.8 		"/>
		<polygon fill="#FFFFFF" points="721.9,514.2 698.9,485.8 721.9,457.5 744.8,485.8 		"/>
		<polyline id="Shadow_Top_3_" opacity="0.1" points="744.8,485.8 721.9,514.2 698.9,485.8 676.1,514 695.8,467.1 661.8,437.2 
			676.1,400.9 676.1,400.9 		"/>
		<polyline id="Shadow_mountain_3_" opacity="0.2" points="676.1,514 698.9,485.8 722,514 744.8,485.8 828.6,589.5 845.3,620.9 
			627.6,598.9 696.9,558.1 643.1,532.7 666.6,502.2 		"/>
	</g>
</g>
<g id="Clouds" display="none">
	<circle display="inline" fill="#AFFDFF" cx="25.1" cy="544.3" r="47"/>
	<circle display="inline" fill="#AFFDFF" cx="83.1" cy="564.3" r="47"/>
	<circle display="inline" fill="#AFFDFF" cx="154.1" cy="533.3" r="47"/>
	<circle display="inline" fill="#AFFDFF" cx="211.1" cy="557.3" r="47"/>
	<circle display="inline" fill="#AFFDFF" cx="293.1" cy="560.3" r="47"/>
	<circle display="inline" fill="#AFFDFF" cx="363.1" cy="549.3" r="47"/>
	<circle display="inline" fill="#AFFDFF" cx="421.1" cy="572.3" r="47"/>
	<circle display="inline" fill="#AFFDFF" cx="499.1" cy="544.3" r="47"/>
	<circle display="inline" fill="#AFFDFF" cx="575.1" cy="576.3" r="47"/>
	<circle display="inline" fill="#AFFDFF" cx="655.1" cy="549.3" r="47"/>
	<circle display="inline" fill="#AFFDFF" cx="727.1" cy="572.3" r="47"/>
	<circle display="inline" fill="#AFFDFF" cx="791.1" cy="533.3" r="47"/>
	<circle display="inline" fill="#AFFDFF" cx="871.1" cy="560.3" r="47"/>
	<circle display="inline" fill="#AFFDFF" cx="942.1" cy="549.3" r="47"/>
</g>
</svg>
